<?xml version="1.0" encoding="UTF-8"?>
<svg width="512" height="512" viewBox="0 0 512 512" xmlns="http://www.w3.org/2000/svg">
  <path fill="#3b82f6" d="M473.9 106.8c-1.9-5.7-5.7-10.4-10.9-13.2-5.1-2.8-11.1-3.5-16.8-1.7l-407.8 131.1c-11.3 3.6-18.5 15-17.9 26.9.6 11.9 8.8 22.5 20.5 25l74.6 16.4 43.4 86.8c3.6 7.3 10.4 12.5 18.4 14.1 1.7.3 3.3.5 5 .5 6.2 0 12.1-2.1 17-5.9l33.3-26.4 65.3 33.2c3.6 1.8 7.5 2.7 11.3 2.7 4.1 0 8.1-1 11.8-3 7-3.8 12-10.5 13.7-18.5l56.1-258.4c1.8-5.7 1.1-11.7-1.7-16.8zm-149.6 220.5l-66.5-33.8-42.4 33.6 8.6-50.9 170.1-133.1-169.8 116.1-73.9-16.2 336.7-108.2-62.8 292.5z"/>
</svg> 